<?xml version="1.0" encoding="utf-8"?><!-- Uploaded to: SVG Repo, www.svgrepo.com, Generator: SVG Repo Mixer Tools -->
<svg width="800px" height="800px" viewBox="0 0 24 24" fill="none" xmlns="http://www.w3.org/2000/svg">
<path d="M3 6C3 4.34315 4.34315 3 6 3H7C8.65685 3 10 4.34315 10 6V7C10 8.65685 8.65685 10 7 10H6C4.34315 10 3 8.65685 3 7V6Z" stroke="#000000" stroke-width="2"/>
<path d="M14 6C14 4.34315 15.3431 3 17 3H18C19.6569 3 21 4.34315 21 6V7C21 8.65685 19.6569 10 18 10H17C15.3431 10 14 8.65685 14 7V6Z" stroke="#000000" stroke-width="2"/>
<path d="M14 17C14 15.3431 15.3431 14 17 14H18C19.6569 14 21 15.3431 21 17V18C21 19.6569 19.6569 21 18 21H17C15.3431 21 14 19.6569 14 18V17Z" stroke="#000000" stroke-width="2"/>
<path d="M3 17C3 15.3431 4.34315 14 6 14H7C8.65685 14 10 15.3431 10 17V18C10 19.6569 8.65685 21 7 21H6C4.34315 21 3 19.6569 3 18V17Z" stroke="#000000" stroke-width="2"/>
</svg>